<svg width="403" height="297" viewBox="0 0 403 297" fill="none" xmlns="http://www.w3.org/2000/svg">
<g clip-path="url(#clip0_2019_2)">
<path d="M201.388 27.8051C254 27.8051 301.399 41.6456 335.493 63.7582C369.635 85.9024 389.888 115.906 389.888 148.305C389.888 180.704 369.635 210.708 335.493 232.852C301.399 254.965 254 268.805 201.388 268.805C148.777 268.805 101.378 254.965 67.2839 232.852C33.1414 210.708 12.8884 180.704 12.8884 148.305C12.8884 115.906 33.1414 85.9024 67.2839 63.7582C101.378 41.6456 148.777 27.8051 201.388 27.8051Z" stroke="#423967" stroke-width="10"/>
<path d="M169.554 29.4963C220.769 15.7731 270.634 16.8475 309.812 29.5521C349.018 42.2656 377.203 66.4857 385.88 98.8707C394.558 131.256 382.259 166.323 354.663 196.936C327.085 227.528 284.439 253.391 233.223 267.114C182.007 280.837 132.143 279.763 92.9647 267.058C53.7587 254.345 25.5741 230.125 16.8966 197.74C8.21907 165.355 20.5175 130.287 48.1142 99.6739C75.6915 69.0821 118.338 43.2195 169.554 29.4963Z" stroke="#6CA4B3" stroke-width="5"/>
<path d="M74.7664 130.462H81.7317V158.697H101.705V164.805H74.7664V130.462ZM106.451 147.535C106.451 144.942 106.927 142.569 107.879 140.415C108.831 138.262 110.164 136.416 111.878 134.878C113.607 133.326 115.672 132.124 118.074 131.275C120.491 130.425 123.165 130 126.094 130C129.01 130 131.676 130.425 134.093 131.275C136.51 132.124 138.575 133.326 140.289 134.878C142.017 136.416 143.358 138.262 144.31 140.415C145.262 142.569 145.738 144.942 145.738 147.535C145.738 150.142 145.262 152.537 144.31 154.72C143.358 156.888 142.017 158.755 140.289 160.323C138.575 161.89 136.51 163.113 134.093 163.992C131.676 164.856 129.01 165.289 126.094 165.289C123.165 165.289 120.491 164.856 118.074 163.992C115.672 163.113 113.607 161.89 111.878 160.323C110.164 158.755 108.831 156.888 107.879 154.72C106.927 152.537 106.451 150.142 106.451 147.535ZM113.416 147.535C113.416 149.307 113.731 150.904 114.361 152.325C115.006 153.746 115.892 154.961 117.02 155.972C118.162 156.968 119.503 157.737 121.041 158.279C122.594 158.821 124.278 159.092 126.094 159.092C127.911 159.092 129.588 158.821 131.126 158.279C132.679 157.737 134.019 156.968 135.147 155.972C136.275 154.961 137.161 153.746 137.806 152.325C138.45 150.904 138.773 149.307 138.773 147.535C138.773 145.762 138.45 144.173 137.806 142.767C137.161 141.36 136.275 140.174 135.147 139.207C134.019 138.226 132.679 137.478 131.126 136.966C129.588 136.453 127.911 136.197 126.094 136.197C124.278 136.197 122.594 136.453 121.041 136.966C119.503 137.478 118.162 138.226 117.02 139.207C115.892 140.174 115.006 141.36 114.361 142.767C113.731 144.173 113.416 145.762 113.416 147.535ZM151.121 147.315C151.121 144.898 151.575 142.642 152.484 140.547C153.392 138.438 154.718 136.607 156.461 135.054C158.204 133.501 160.343 132.278 162.877 131.385C165.426 130.491 168.341 130.044 171.622 130.044C172.808 130.044 173.995 130.11 175.181 130.242C176.383 130.359 177.562 130.55 178.719 130.813C179.891 131.077 181.026 131.414 182.125 131.824C183.238 132.22 184.293 132.696 185.289 133.252L182.081 138.526C181.48 138.174 180.799 137.859 180.037 137.581C179.276 137.288 178.455 137.046 177.576 136.856C176.712 136.651 175.811 136.497 174.874 136.394C173.951 136.292 173.021 136.241 172.083 136.241C169.915 136.241 167.982 136.519 166.282 137.076C164.583 137.618 163.148 138.387 161.976 139.383C160.804 140.364 159.91 141.543 159.295 142.92C158.68 144.297 158.372 145.806 158.372 147.447C158.372 149.146 158.695 150.706 159.339 152.127C159.984 153.548 160.899 154.771 162.086 155.796C163.272 156.822 164.708 157.627 166.392 158.213C168.077 158.785 169.959 159.07 172.039 159.07C173.695 159.07 175.211 158.887 176.588 158.521C177.965 158.14 179.166 157.605 180.191 156.917C181.217 156.228 182.052 155.401 182.696 154.434C183.341 153.453 183.765 152.354 183.97 151.138H171.973V145.403H190.233V145.425L190.255 145.403C190.621 147.161 190.731 148.875 190.584 150.545C190.452 152.2 190.072 153.768 189.442 155.247C188.826 156.712 187.977 158.06 186.893 159.29C185.809 160.52 184.512 161.582 183.004 162.476C181.495 163.355 179.781 164.043 177.862 164.541C175.943 165.025 173.841 165.267 171.556 165.267C168.363 165.267 165.499 164.798 162.965 163.86C160.445 162.923 158.306 161.641 156.549 160.015C154.791 158.389 153.443 156.485 152.506 154.302C151.583 152.12 151.121 149.79 151.121 147.315ZM196.451 147.535C196.451 144.942 196.927 142.569 197.879 140.415C198.831 138.262 200.164 136.416 201.878 134.878C203.607 133.326 205.672 132.124 208.074 131.275C210.491 130.425 213.165 130 216.094 130C219.01 130 221.676 130.425 224.093 131.275C226.51 132.124 228.575 133.326 230.289 134.878C232.017 136.416 233.358 138.262 234.31 140.415C235.262 142.569 235.738 144.942 235.738 147.535C235.738 150.142 235.262 152.537 234.31 154.72C233.358 156.888 232.017 158.755 230.289 160.323C228.575 161.89 226.51 163.113 224.093 163.992C221.676 164.856 219.01 165.289 216.094 165.289C213.165 165.289 210.491 164.856 208.074 163.992C205.672 163.113 203.607 161.89 201.878 160.323C200.164 158.755 198.831 156.888 197.879 154.72C196.927 152.537 196.451 150.142 196.451 147.535ZM203.416 147.535C203.416 149.307 203.731 150.904 204.361 152.325C205.006 153.746 205.892 154.961 207.02 155.972C208.162 156.968 209.503 157.737 211.041 158.279C212.594 158.821 214.278 159.092 216.094 159.092C217.911 159.092 219.588 158.821 221.126 158.279C222.679 157.737 224.019 156.968 225.147 155.972C226.275 154.961 227.161 153.746 227.806 152.325C228.45 150.904 228.773 149.307 228.773 147.535C228.773 145.762 228.45 144.173 227.806 142.767C227.161 141.36 226.275 140.174 225.147 139.207C224.019 138.226 222.679 137.478 221.126 136.966C219.588 136.453 217.911 136.197 216.094 136.197C214.278 136.197 212.594 136.453 211.041 136.966C209.503 137.478 208.162 138.226 207.02 139.207C205.892 140.174 205.006 141.36 204.361 142.767C203.731 144.173 203.416 145.762 203.416 147.535ZM253.822 136.57H241.143V130.462H273.465V136.57H260.787V164.805H253.822V136.57ZM280.035 130.462H287.044V164.805H280.035V130.462ZM295.943 130.462H314.049C316.685 130.462 318.97 130.747 320.904 131.319C322.838 131.89 324.442 132.718 325.716 133.802C326.99 134.871 327.935 136.182 328.551 137.735C329.18 139.288 329.495 141.038 329.495 142.986C329.495 144.817 329.188 146.509 328.573 148.062C327.957 149.615 327.012 150.962 325.738 152.105C324.478 153.233 322.882 154.119 320.948 154.764C319.014 155.393 316.729 155.708 314.093 155.708L302.908 155.686V164.805H295.943V130.462ZM314.224 149.666C315.543 149.666 316.693 149.512 317.674 149.205C318.67 148.882 319.498 148.435 320.157 147.864C320.831 147.278 321.329 146.575 321.651 145.755C321.988 144.92 322.156 143.997 322.156 142.986C322.156 140.95 321.49 139.368 320.157 138.24C318.839 137.098 316.861 136.526 314.224 136.526H302.908V149.666H314.224Z" fill="#2B2543"/>
</g>
<defs>
<clipPath id="clip0_2019_2">
<rect width="403" height="297" fill="white"/>
</clipPath>
</defs>
</svg>
